<svg id="Layer_1" data-name="Layer 1" xmlns="http://www.w3.org/2000/svg" viewBox="0 0 623.88 383.57"><defs><style>.cls-1{fill:none;stroke-miterlimit:10;stroke-width:5px;}.cls-1,.cls-3{stroke:#333;}.cls-2{fill:#333;}.cls-3{fill:#4d4d4d;}</style></defs><path class="cls-1" d="M579,422H539" transform="translate(-88.07 -56.25)"/><path class="cls-1" d="M542,422V357c0,16-6.49-32.32,17-54,13-12,11.5-55.5,8-68-5-17.81-5-44.2-2-54,3.32-10.9,36.94,1,48-13,12.46-15.78,27.77-70.44,3-66-67,12-51.5-13.5-67-28" transform="translate(-88.07 -56.25)"/><path class="cls-1" d="M578,307" transform="translate(-88.07 -56.25)"/><path class="cls-1" d="M549,74c-33-23-90-22-112,17-12.74,22.59-14,97,29,97,45,0,40.63-41.42,44-63,2.2-14,2.66-1.65,0-5" transform="translate(-88.07 -56.25)"/><path class="cls-1" d="M456.16,422H310c-7-20-8-42-1-62a94.09,94.09,0,0,1,12-22c17-21,40-32,63-48,40-26,71-60,86.65-104.46" transform="translate(-88.07 -56.25)"/><path class="cls-1" d="M253.67,329.5c-16.56,15.1-23.39,36.71-17,55.5,8.52,25.16,39.57,42,72.36,35.68" transform="translate(-88.07 -56.25)"/><path class="cls-1" d="M359,342.9c73-40.9,101,17.1,88.53,39.3-10.63,18.92-39.64,39.3-88.53,39.3" transform="translate(-88.07 -56.25)"/><path class="cls-2" d="M548.33,76.25a1.5,1.5,0,0,0,0-3,1.5,1.5,0,0,0,0,3Z" transform="translate(-88.07 -56.25)"/><path class="cls-2" d="M549.06,76.52a1.5,1.5,0,0,0,0-3,1.5,1.5,0,0,0,0,3Z" transform="translate(-88.07 -56.25)"/><path class="cls-3" d="M122.22,186.75l-24.1,38.11H123v6.82H88.57v-6.19l24.29-38.11H89.25v-6.82h33Z" transform="translate(-88.07 -56.25)"/><path class="cls-3" d="M148.34,180.56H155l20.41,51.12H167l-15.34-41.24-15.35,41.24h-8.37Zm-11,33.09h29.13v6.82H137.34Z" transform="translate(-88.07 -56.25)"/><path class="cls-3" d="M183.75,180.56h7.77v51.12h-7.77Zm5.25,44.3h12.53q6.14,0,9.5-2.94t3.37-8.27V198.6q0-5.34-3.37-8.28t-9.5-2.94H189v-6.82h12.3a27.43,27.43,0,0,1,11.39,2.15,15.71,15.71,0,0,1,7.19,6.26,18.86,18.86,0,0,1,2.48,9.91v14.48a18.89,18.89,0,0,1-2.48,9.92,15.72,15.72,0,0,1-7.21,6.26,27.53,27.53,0,0,1-11.41,2.14H189Z" transform="translate(-88.07 -56.25)"/><path class="cls-3" d="M247.71,180.56h6.63l20.41,51.12h-8.38L251,190.44l-15.35,41.24h-8.37Zm-11,33.09h29.13v6.82H236.71Z" transform="translate(-88.07 -56.25)"/><path class="cls-3" d="M283.12,180.53h7.77v51.15h-7.77Zm3.39,22.71h18.88a7.73,7.73,0,0,0,3.93-1,6.59,6.59,0,0,0,2.64-2.79,9.7,9.7,0,0,0,0-8.33,6.71,6.71,0,0,0-2.63-2.8,7.73,7.73,0,0,0-3.94-1H286.51v-6.82h18.58a18.49,18.49,0,0,1,8.43,1.83,13.29,13.29,0,0,1,5.64,5.18,16,16,0,0,1,0,15.51,13.59,13.59,0,0,1-5.66,5.18,18.41,18.41,0,0,1-8.39,1.83H286.51Zm15.08,5.24,7.73-1.62,14.16,24.82h-9.21Z" transform="translate(-88.07 -56.25)"/><path class="cls-3" d="M341.49,231.5a30,30,0,0,1-6.68-2.1,28.49,28.49,0,0,1-5.81-3.52l4.83-5.48a22.42,22.42,0,0,0,7,3.79,25.86,25.86,0,0,0,8.26,1.27q6,0,9.33-2.06a6.48,6.48,0,0,0,3.31-5.82v0a5.87,5.87,0,0,0-1.5-4.24,9.18,9.18,0,0,0-3.88-2.32,46.72,46.72,0,0,0-6.15-1.39,1,1,0,0,0-.25,0,.69.69,0,0,1-.25,0l-.57-.1a63.8,63.8,0,0,1-9-2,12.8,12.8,0,0,1-6-4q-2.48-2.94-2.47-8.35v0a13.94,13.94,0,0,1,2.3-8.1,14.36,14.36,0,0,1,6.72-5.12,31.66,31.66,0,0,1,16.47-1.16,30.72,30.72,0,0,1,5.67,1.78,32.4,32.4,0,0,1,5.5,3l-4.41,5.69a26.68,26.68,0,0,0-6.31-3.21,19.22,19.22,0,0,0-6.3-1.07c-3.78,0-6.72.69-8.81,2.09a6.69,6.69,0,0,0-3.14,5.92v0a5.38,5.38,0,0,0,1.62,4.14,9.89,9.89,0,0,0,4,2.24,63.74,63.74,0,0,0,6.72,1.49l.29,0,.28.06.42.07.42.07a48.55,48.55,0,0,1,8.4,2.25,13,13,0,0,1,5.63,4.2q2.26,2.9,2.27,7.93v.07a13.27,13.27,0,0,1-2.4,8,14.81,14.81,0,0,1-6.95,5.07,30.87,30.87,0,0,1-11,1.74A39.07,39.07,0,0,1,341.49,231.5Z" transform="translate(-88.07 -56.25)"/><path class="cls-3" d="M379.67,180.56h7.77v51.12h-7.77Zm6.1,28.69,24.44-28.69h9.56L384.62,220ZM395,204.4l6.13-5.24,21,32.52h-9.52Z" transform="translate(-88.07 -56.25)"/><path class="cls-3" d="M438.23,231.68h-7.77V180.56h7.77Z" transform="translate(-88.07 -56.25)"/><path class="cls-3" d="M586.93,278.76h6.12l18.84,51.12h-7.73L590,288.64l-14.17,41.24h-7.73Zm-10.16,33.08h26.89v6.83H576.77Z" transform="translate(-88.07 -56.25)"/><path class="cls-3" d="M648.59,285l-22.25,38.11h23v6.82H617.52v-6.19L640,285.58h-21.8v-6.82h30.44Z" transform="translate(-88.07 -56.25)"/><path class="cls-3" d="M666,329.88h-7.17V278.76H666Z" transform="translate(-88.07 -56.25)"/><path class="cls-3" d="M678.62,278.76h7.17v51.12h-7.17Zm3.58,44.3h29.25v6.82H682.2Z" transform="translate(-88.07 -56.25)"/><path class="cls-3" d="M135,148.53c2,3.86-.22,5.32-3.09,7s-5.26,3.05-7.29-.81-1.33-8.39,1.53-10.11S133,144.67,135,148.53Z" transform="translate(-88.07 -56.25)"/><path class="cls-3" d="M118.85,147.26a4,4,0,0,1,2.21,4.12,2.2,2.2,0,0,1-3.15,1.84c-1.48-.63-4.68-3.41-4.42-5.06S117.37,146.63,118.85,147.26Z" transform="translate(-88.07 -56.25)"/><path class="cls-3" d="M122.14,139.6a3.51,3.51,0,0,1,0,4.35,2.31,2.31,0,0,1-3.65-.16c-1-1.25-2.49-5.06-1.48-6.22S121.14,138.35,122.14,139.6Z" transform="translate(-88.07 -56.25)"/><path class="cls-3" d="M130,137.09a2.67,2.67,0,0,1-1.89,3.49,3.19,3.19,0,0,1-3.6-2.31c-.47-1.6-.31-5.55,1.2-5.88S129.57,135.49,130,137.09Z" transform="translate(-88.07 -56.25)"/><path class="cls-3" d="M137.6,142.13a2.29,2.29,0,0,1-3.27,1.92,4.16,4.16,0,0,1-2.32-4.28c.27-1.71,2.13-5.11,3.67-4.46S137.87,140.42,137.6,142.13Z" transform="translate(-88.07 -56.25)"/><path class="cls-3" d="M164,119.28c-2.33,3.68-4.72,2.47-7.64.85s-5.27-3-2.94-6.72,6.59-5.35,9.51-3.73S166.3,115.6,164,119.28Z" transform="translate(-88.07 -56.25)"/><path class="cls-3" d="M157,104.64a4,4,0,0,1-2.45,4,2.2,2.2,0,0,1-3.17-1.81c-.2-1.6.61-5.76,2.17-6.36S156.79,103,157,104.64Z" transform="translate(-88.07 -56.25)"/><path class="cls-3" d="M165.27,103.66a3.51,3.51,0,0,1-3.78,2.16,2.3,2.3,0,0,1-1.68-3.24c.58-1.49,3.13-4.68,4.64-4.38S165.85,102.17,165.27,103.66Z" transform="translate(-88.07 -56.25)"/><path class="cls-3" d="M171.38,109.24a2.67,2.67,0,0,1-4,.1,3.2,3.2,0,0,1,.21-4.27c1.15-1.2,4.65-3,5.69-1.89S172.54,108,171.38,109.24Z" transform="translate(-88.07 -56.25)"/><path class="cls-3" d="M170.8,118.32a2.3,2.3,0,0,1-3.3-1.88,4.18,4.18,0,0,1,2.55-4.15c1.61-.62,5.5-.71,5.7.95S172.41,117.69,170.8,118.32Z" transform="translate(-88.07 -56.25)"/><path class="cls-3" d="M135.1,84.47c2,3.86-.22,5.32-3.09,7s-5.26,3-7.29-.81-1.33-8.39,1.53-10.11S133.08,80.61,135.1,84.47Z" transform="translate(-88.07 -56.25)"/><path class="cls-3" d="M118.93,83.2a4,4,0,0,1,2.21,4.12A2.2,2.2,0,0,1,118,89.16c-1.48-.63-4.68-3.41-4.42-5.06S117.45,82.57,118.93,83.2Z" transform="translate(-88.07 -56.25)"/><path class="cls-3" d="M122.22,75.54a3.51,3.51,0,0,1,0,4.35,2.31,2.31,0,0,1-3.65-.16c-1-1.25-2.49-5.06-1.48-6.22S121.22,74.29,122.22,75.54Z" transform="translate(-88.07 -56.25)"/><path class="cls-3" d="M130.11,73a2.67,2.67,0,0,1-1.89,3.49,3.19,3.19,0,0,1-3.6-2.31c-.47-1.6-.31-5.55,1.2-5.88S129.65,71.43,130.11,73Z" transform="translate(-88.07 -56.25)"/><path class="cls-3" d="M137.68,78.07A2.29,2.29,0,0,1,134.41,80a4.16,4.16,0,0,1-2.32-4.28c.27-1.71,2.13-5.11,3.67-4.46S138,76.36,137.68,78.07Z" transform="translate(-88.07 -56.25)"/><path class="cls-3" d="M140.43,430.6c2,3.86-.22,5.32-3.08,7s-5.27,3.05-7.29-.81-1.34-8.39,1.52-10.11S138.41,426.74,140.43,430.6Z" transform="translate(-88.07 -56.25)"/><path class="cls-3" d="M124.26,429.33a4,4,0,0,1,2.22,4.12,2.2,2.2,0,0,1-3.15,1.84c-1.48-.63-4.68-3.41-4.43-5.06S122.78,428.7,124.26,429.33Z" transform="translate(-88.07 -56.25)"/><path class="cls-3" d="M127.56,421.67a3.51,3.51,0,0,1,0,4.35,2.31,2.31,0,0,1-3.65-.16c-1-1.25-2.49-5.06-1.47-6.22S126.55,420.42,127.56,421.67Z" transform="translate(-88.07 -56.25)"/><path class="cls-3" d="M135.45,419.16a2.67,2.67,0,0,1-1.9,3.49,3.18,3.18,0,0,1-3.59-2.31c-.47-1.6-.32-5.55,1.2-5.88S135,417.56,135.45,419.16Z" transform="translate(-88.07 -56.25)"/><path class="cls-3" d="M143,424.2a2.29,2.29,0,0,1-3.27,1.92,4.18,4.18,0,0,1-2.32-4.28c.27-1.71,2.13-5.11,3.68-4.46S143.28,422.49,143,424.2Z" transform="translate(-88.07 -56.25)"/><path class="cls-3" d="M168.34,401.67c-2.3,3.71-4.7,2.52-7.63.92s-5.31-3-3-6.69,6.54-5.41,9.48-3.82S170.63,398,168.34,401.67Z" transform="translate(-88.07 -56.25)"/><path class="cls-3" d="M161.21,387.1a4,4,0,0,1-2.42,4,2.21,2.21,0,0,1-3.19-1.78c-.21-1.59.56-5.76,2.11-6.38S161,385.5,161.21,387.1Z" transform="translate(-88.07 -56.25)"/><path class="cls-3" d="M169.48,386a3.5,3.5,0,0,1-3.75,2.2A2.31,2.31,0,0,1,164,385c.57-1.49,3.09-4.71,4.6-4.42S170.05,384.54,169.48,386Z" transform="translate(-88.07 -56.25)"/><path class="cls-3" d="M175.65,391.56a2.67,2.67,0,0,1-4,.14,3.19,3.19,0,0,1,.17-4.27c1.14-1.22,4.62-3.09,5.67-1.95S176.79,390.35,175.65,391.56Z" transform="translate(-88.07 -56.25)"/><path class="cls-3" d="M175.16,400.64a2.29,2.29,0,0,1-3.32-1.84,4.16,4.16,0,0,1,2.51-4.17c1.61-.64,5.49-.77,5.71.89S176.76,400,175.16,400.64Z" transform="translate(-88.07 -56.25)"/><path class="cls-3" d="M139.08,356.08c2,3.86-.23,5.32-3.09,7s-5.27,3.05-7.29-.81-1.34-8.39,1.53-10.11S137.05,352.22,139.08,356.08Z" transform="translate(-88.07 -56.25)"/><path class="cls-3" d="M122.9,354.81a4,4,0,0,1,2.22,4.12,2.2,2.2,0,0,1-3.15,1.84c-1.48-.63-4.68-3.41-4.43-5.06S121.42,354.18,122.9,354.81Z" transform="translate(-88.07 -56.25)"/><path class="cls-3" d="M126.2,347.15a3.51,3.51,0,0,1,0,4.35,2.31,2.31,0,0,1-3.65-.16c-1-1.25-2.48-5.06-1.47-6.22S125.19,345.9,126.2,347.15Z" transform="translate(-88.07 -56.25)"/><path class="cls-3" d="M134.09,344.64a2.67,2.67,0,0,1-1.9,3.49,3.18,3.18,0,0,1-3.59-2.31c-.47-1.6-.32-5.55,1.2-5.88S133.62,343,134.09,344.64Z" transform="translate(-88.07 -56.25)"/><path class="cls-3" d="M141.66,349.68a2.3,2.3,0,0,1-3.28,1.92,4.15,4.15,0,0,1-2.31-4.28c.26-1.71,2.13-5.11,3.67-4.46S141.92,348,141.66,349.68Z" transform="translate(-88.07 -56.25)"/><path class="cls-3" d="M168,326.83c-2.34,3.68-4.72,2.47-7.64.85s-5.28-3-2.94-6.72,6.59-5.35,9.51-3.73S170.36,323.15,168,326.83Z" transform="translate(-88.07 -56.25)"/><path class="cls-3" d="M161,312.19a4,4,0,0,1-2.46,4,2.21,2.21,0,0,1-3.17-1.81c-.19-1.6.62-5.76,2.17-6.36S160.84,310.59,161,312.19Z" transform="translate(-88.07 -56.25)"/><path class="cls-3" d="M169.32,311.21a3.49,3.49,0,0,1-3.77,2.16,2.31,2.31,0,0,1-1.69-3.24c.58-1.49,3.14-4.68,4.65-4.38S169.9,309.72,169.32,311.21Z" transform="translate(-88.07 -56.25)"/><path class="cls-3" d="M175.44,316.79a2.67,2.67,0,0,1-4,.1,3.2,3.2,0,0,1,.2-4.27c1.16-1.2,4.66-3,5.69-1.89S176.59,315.59,175.44,316.79Z" transform="translate(-88.07 -56.25)"/><path class="cls-3" d="M174.86,325.87a2.3,2.3,0,0,1-3.3-1.88,4.15,4.15,0,0,1,2.55-4.15c1.61-.62,5.49-.71,5.7,1S176.47,325.24,174.86,325.87Z" transform="translate(-88.07 -56.25)"/><path class="cls-3" d="M138.5,293.39c1.42,4.12-1,5.22-4.1,6.5s-5.67,2.23-7.09-1.89-.08-8.49,3-9.76S137.07,289.27,138.5,293.39Z" transform="translate(-88.07 -56.25)"/><path class="cls-3" d="M122.69,289.73a4,4,0,0,1,1.58,4.4,2.21,2.21,0,0,1-3.39,1.35c-1.37-.85-4.12-4.08-3.62-5.67S121.32,288.88,122.69,289.73Z" transform="translate(-88.07 -56.25)"/><path class="cls-3" d="M127.09,282.63a3.5,3.5,0,0,1-.66,4.3,2.29,2.29,0,0,1-3.58-.7c-.81-1.38-1.71-5.37-.54-6.36S126.29,281.25,127.09,282.63Z" transform="translate(-88.07 -56.25)"/><path class="cls-3" d="M135.27,281.34a2.67,2.67,0,0,1-2.4,3.16,3.2,3.2,0,0,1-3.21-2.82c-.22-1.65.52-5.54,2.07-5.63S135,279.68,135.27,281.34Z" transform="translate(-88.07 -56.25)"/><path class="cls-3" d="M142,287.45a2.28,2.28,0,0,1-3.52,1.4,4.14,4.14,0,0,1-1.65-4.57c.51-1.65,2.86-4.74,4.29-3.87S142.52,285.8,142,287.45Z" transform="translate(-88.07 -56.25)"/><path class="cls-3" d="M168.76,262.27c-1.6,4.05-4.17,3.31-7.35,2.26s-5.75-2-4.15-6,5.48-6.5,8.65-5.45S170.36,258.22,168.76,262.27Z" transform="translate(-88.07 -56.25)"/><path class="cls-3" d="M159.15,249.2a4,4,0,0,1-1.67,4.37,2.2,2.2,0,0,1-3.45-1.18c-.49-1.53-.48-5.78.94-6.66S158.65,247.67,159.15,249.2Z" transform="translate(-88.07 -56.25)"/><path class="cls-3" d="M167.1,246.68a3.51,3.51,0,0,1-3.3,2.84,2.3,2.3,0,0,1-2.26-2.87c.29-1.57,2.2-5.19,3.74-5.18S167.39,245.11,167.1,246.68Z" transform="translate(-88.07 -56.25)"/><path class="cls-3" d="M174.16,251a2.68,2.68,0,0,1-3.88.85,3.19,3.19,0,0,1-.6-4.24c.9-1.4,4-3.86,5.23-2.93S175.06,249.62,174.16,251Z" transform="translate(-88.07 -56.25)"/><path class="cls-3" d="M175.28,260a2.28,2.28,0,0,1-3.58-1.22,4.15,4.15,0,0,1,1.72-4.55c1.47-.92,5.26-1.73,5.78-.14S176.75,259.13,175.28,260Z" transform="translate(-88.07 -56.25)"/></svg>